<svg fill="#000000" height="30" viewBox="0 0 30 30" width="30" xmlns="http://www.w3.org/2000/svg">
<path d="m 17.499522,15 c -0.796742,0 -1.45526,0.313881 -1.879265,0.792969 -0.424006,0.479088 -0.621213,1.097936 -0.621213,1.707031 0,0.781386 -0.566546,1.417586 -0.808749,1.607422 -0.37195,0.293493 -0.165179,0.891444 0.308653,0.892578 l 2.500479,0 c 0.786919,0 1.517641,-0.230581 2.072662,-0.662109 C 19.62711,18.906362 20,18.249274 20,17.5 20,16.817113 19.806515,16.179345 19.369021,15.714844 18.931525,15.250343 18.273835,15 17.499522,15 Z m 0,1 c 0.571371,0 0.914568,0.160148 1.140843,0.400391 0.226276,0.240242 0.359444,0.601468 0.359444,1.099609 0,0.431754 -0.189717,0.775613 -0.541119,1.048828 C 18.107287,18.822043 17.58777,19 16.999427,19 l -1.422147,0 c 0.236754,-0.399449 0.421955,-0.899992 0.421955,-1.5 0,-0.390905 0.129447,-0.772057 0.369212,-1.042969 C 16.608211,16.186119 16.95058,16 17.499522,16 Z M 29.283918,5.0109337 c -0.12576,0.014168 -0.232665,0.046821 -0.351595,0.087884 -0.237861,0.082125 -0.51341,0.2097672 -0.837969,0.3749683 -0.649118,0.3304023 -1.477293,0.8129082 -2.35178,1.3651189 -1.748975,1.1044215 -3.659519,2.457798 -4.641056,3.4391621 -0.934391,0.934227 -1.61598,1.78399 -1.935726,2.636495 -0.319746,0.852506 -0.185793,1.776964 0.47856,2.4412 0.664354,0.664236 1.588977,0.798165 2.441633,0.478475 0.852655,-0.319689 1.702572,-1.001156 2.636963,-1.935382 0.981537,-0.981365 2.335156,-2.891566 3.439772,-4.6402328 0.552308,-0.8743338 1.034901,-1.7023591 1.365361,-2.3513636 0.165231,-0.3245023 0.292895,-0.6000012 0.375035,-0.8378198 0.04106,-0.1189093 0.07178,-0.225796 0.08595,-0.3515328 0.01417,-0.1257372 0.04826,-0.3267113 -0.166035,-0.5409703 -0.214297,-0.2142588 -0.413354,-0.1801695 -0.539113,-0.166002 z m -0.646545,1.4432374 c -0.307114,0.6031518 -0.779761,1.4153736 -1.320436,2.2712923 -1.08135,1.7118376 -2.460985,3.6264656 -3.301087,4.4664196 -0.887246,0.88709 -1.676806,1.480181 -2.281461,1.706887 -0.604656,0.226705 -0.954311,0.178575 -1.382942,-0.249979 -0.428628,-0.428554 -0.476768,-0.778147 -0.250023,-1.382696 0.226746,-0.604549 0.819944,-1.393967 1.70719,-2.281057 0.840102,-0.839955 2.755073,-2.2193418 4.467212,-3.3005022 0.856068,-0.5405803 1.668436,-1.0131418 2.271694,-1.3202009 0.134499,-0.036032 0.129148,0.021786 0.08985,0.089836 z M 2.5,8 19.5,8 C 19.777,8 20,8.223 20,8.5 20,8.777 19.777,9 19.5,9 L 2.5,9 C 2.223,9 2,8.777 2,8.5 2,8.223 2.223,8 2.5,8 Z M 7,6.5 C 7,6.7761424 6.7761424,7 6.5,7 6.2238576,7 6,6.7761424 6,6.5 6,6.2238576 6.2238576,6 6.5,6 6.7761424,6 7,6.2238576 7,6.5 Z m -2,0 C 5,6.7761424 4.7761424,7 4.5,7 4.2238576,7 4,6.7761424 4,6.5 4,6.2238576 4.2238576,6 4.5,6 4.7761424,6 5,6.2238576 5,6.5 Z m -2,0 C 3,6.7761424 2.7761424,7 2.5,7 2.2238576,7 2,6.7761424 2,6.5 2,6.2238576 2.2238576,6 2.5,6 2.7761424,6 3,6.2238576 3,6.5 Z M 1.5,4 C 0.67764862,4 0,4.6776486 0,5.5 l 0,19 C 0,25.322351 0.67764862,26 1.5,26 l 25,0 c 0.822351,0 1.5,-0.677649 1.5,-1.5 l 0,-12 c 0,-0.668352 -1,-0.664587 -1,0 l 0,12 c 0,0.285649 -0.214351,0.5 -0.5,0.5 l -25,0 C 1.2143514,25 1,24.785649 1,24.5 L 1,5.5 C 1,5.2143514 1.2143514,5 1.5,5 l 25,0 c 0.664517,0 0.656706,-1 0,-1 z"/>
</svg>